<svg width="642" height="75.601" viewBox="0 0 642 75.601" xmlns="http://www.w3.org/2000/svg"><g id="svgGroup" stroke-linecap="round" fill-rule="evenodd" font-size="9pt" stroke="#ffffff" stroke-width="0.25mm" fill="#ffffff" style="stroke:#ffffff;stroke-width:0.25mm;fill:#ffffff"><path d="M 41.4 74.6 L 35.05 74.6 L 35.05 40.9 L 6.35 40.9 L 6.35 74.6 L 0 74.6 L 0 5.9 L 6.35 5.9 L 6.35 35.7 L 35.05 35.7 L 35.05 5.9 L 41.4 5.9 L 41.4 74.6 Z M 162.8 22.1 A 62.71 62.71 0 0 0 161.475 21.784 A 52.749 52.749 0 0 0 159.375 21.35 A 14.734 14.734 0 0 0 159.323 21.34 Q 158.507 21.193 157.586 21.12 A 24.048 24.048 0 0 0 155.7 21.05 Q 152.456 21.05 149.801 21.756 A 14.759 14.759 0 0 0 144.025 24.675 A 22.177 22.177 0 0 0 143.49 25.138 Q 141.332 27.067 139.49 29.712 A 36.739 36.739 0 0 0 136.6 34.7 L 135.45 22.1 L 122.15 22.1 L 122.15 27.35 L 130.7 27.35 L 130.7 69.4 L 122.15 69.4 L 122.15 74.6 L 147.7 74.6 L 147.7 69.4 L 136.9 69.4 L 136.9 45 Q 139.7 35.65 144.15 31.325 Q 148.6 27 154.95 27 Q 155.853 27 156.65 27.064 A 15.073 15.073 0 0 1 157.975 27.225 Q 158.803 27.366 159.797 27.614 A 38.472 38.472 0 0 1 161.05 27.95 L 162.8 22.1 L 156.5 22.1 L 156.1 28.35 L 156.1 38.6 L 162.1 38.6 L 162.8 22.1 Z M 402.8 22.1 A 62.71 62.71 0 0 0 401.475 21.784 A 52.749 52.749 0 0 0 399.375 21.35 A 14.734 14.734 0 0 0 399.323 21.34 Q 398.507 21.193 397.586 21.12 A 24.048 24.048 0 0 0 395.7 21.05 Q 392.456 21.05 389.801 21.756 A 14.759 14.759 0 0 0 384.025 24.675 A 22.177 22.177 0 0 0 383.49 25.138 Q 381.332 27.067 379.49 29.712 A 36.739 36.739 0 0 0 376.6 34.7 L 375.45 22.1 L 362.15 22.1 L 362.15 27.35 L 370.7 27.35 L 370.7 69.4 L 362.15 69.4 L 362.15 74.6 L 387.7 74.6 L 387.7 69.4 L 376.9 69.4 L 376.9 45 Q 379.7 35.65 384.15 31.325 Q 388.6 27 394.95 27 Q 395.853 27 396.65 27.064 A 15.073 15.073 0 0 1 397.975 27.225 Q 398.803 27.366 399.797 27.614 A 38.472 38.472 0 0 1 401.05 27.95 L 402.8 22.1 L 396.5 22.1 L 396.1 28.35 L 396.1 38.6 L 402.1 38.6 L 402.8 22.1 Z M 465.75 11.4 L 461.85 15.85 Q 458.5 13 454.825 11.875 Q 451.15 10.75 447.2 10.75 Q 441.2 10.75 436.025 13.5 A 17.638 17.638 0 0 0 430.347 18.373 A 24.894 24.894 0 0 0 427.7 22.675 A 26.491 26.491 0 0 0 425.782 28.15 Q 425.128 30.873 424.821 34.118 A 65.278 65.278 0 0 0 424.55 40.25 A 64.03 64.03 0 0 0 424.873 46.897 Q 425.534 53.216 427.55 57.55 A 24.528 24.528 0 0 0 430.329 62.196 A 17.473 17.473 0 0 0 435.625 66.85 A 22.452 22.452 0 0 0 446.129 69.689 A 26.529 26.529 0 0 0 446.9 69.7 A 34.282 34.282 0 0 0 450.902 69.48 Q 452.875 69.248 454.54 68.77 A 16.4 16.4 0 0 0 456.675 68 A 31.689 31.689 0 0 0 460.219 66.163 A 24.316 24.316 0 0 0 463.2 64.05 L 466.8 68.65 A 20.42 20.42 0 0 1 463.647 71.116 Q 461.615 72.423 459.025 73.525 Q 454.858 75.299 449.029 75.556 A 45.968 45.968 0 0 1 447 75.6 Q 438.95 75.6 432.325 71.525 A 26.999 26.999 0 0 1 423.92 63.275 A 34.229 34.229 0 0 1 421.8 59.575 A 35.447 35.447 0 0 1 418.89 50.882 Q 417.9 46.02 417.9 40.25 Q 417.9 28.65 421.875 20.8 A 32.518 32.518 0 0 1 426.324 14.099 A 26.043 26.043 0 0 1 432.375 8.95 Q 438.9 4.95 446.5 4.95 Q 453.05 4.95 457.4 6.575 A 29.364 29.364 0 0 1 463.92 10.031 A 34.611 34.611 0 0 1 465.75 11.4 Z M 283.65 11.6 L 251.75 11.6 L 251.75 37.45 L 279.55 37.45 L 279.55 43 L 251.75 43 L 251.75 74.6 L 245.45 74.6 L 245.45 5.9 L 284.5 5.9 L 283.65 11.6 Z M 573.55 27.75 L 573.55 0 L 579.75 0.85 L 579.75 74.6 L 574.35 74.6 L 573.55 67.35 Q 570.7 71.421 567.257 73.344 A 14.084 14.084 0 0 1 566.525 73.725 Q 562.65 75.6 558.55 75.6 A 23.133 23.133 0 0 1 553.498 75.077 A 16.123 16.123 0 0 1 547.125 72.175 A 18.761 18.761 0 0 1 541.893 65.857 A 24.459 24.459 0 0 1 540.5 62.625 A 36.766 36.766 0 0 1 538.822 55.588 A 50.614 50.614 0 0 1 538.35 48.5 A 43.6 43.6 0 0 1 538.956 41.069 A 33.698 33.698 0 0 1 540.775 34.475 Q 543.2 28.3 547.775 24.725 A 16.795 16.795 0 0 1 556.48 21.276 A 21.826 21.826 0 0 1 558.85 21.15 A 23.252 23.252 0 0 1 563.078 21.517 A 17.302 17.302 0 0 1 567.25 22.825 A 17.902 17.902 0 0 1 573.209 27.35 A 20.729 20.729 0 0 1 573.55 27.75 Z M 101.85 50.85 L 66.15 50.85 Q 66.266 55.949 67.62 59.63 A 16.919 16.919 0 0 0 68.525 61.675 A 16.643 16.643 0 0 0 70.969 65.197 A 13.329 13.329 0 0 0 74.4 67.9 Q 78.05 69.9 82.35 69.9 A 24.523 24.523 0 0 0 86.153 69.618 A 18.405 18.405 0 0 0 89.725 68.7 Q 92.849 67.538 96.278 65.202 A 43.615 43.615 0 0 0 96.5 65.05 L 99.75 69.7 Q 96.1 72.5 91.525 74.05 A 29.339 29.339 0 0 1 85.652 75.413 A 25.245 25.245 0 0 1 82.6 75.6 A 25.85 25.85 0 0 1 76.456 74.902 A 19.964 19.964 0 0 1 70.175 72.2 A 21.319 21.319 0 0 1 62.975 64.164 A 26.017 26.017 0 0 1 62.25 62.675 A 30.46 30.46 0 0 1 60.026 55.144 A 41.267 41.267 0 0 1 59.5 48.4 A 38.89 38.89 0 0 1 60.178 40.973 A 29.96 29.96 0 0 1 62.3 34.25 A 25.165 25.165 0 0 1 66.013 28.323 A 21.438 21.438 0 0 1 70.075 24.625 A 19.337 19.337 0 0 1 80.125 21.198 A 24.041 24.041 0 0 1 81.65 21.15 A 22.082 22.082 0 0 1 87.07 21.786 A 17.225 17.225 0 0 1 92.6 24.25 A 18.83 18.83 0 0 1 98.412 30.665 A 23.764 23.764 0 0 1 99.575 33.025 Q 101.844 38.334 101.99 45.547 A 49.481 49.481 0 0 1 102 46.55 A 62.603 62.603 0 0 1 101.988 47.793 Q 101.977 48.381 101.953 48.905 A 37.34 37.34 0 0 1 101.95 48.975 Q 101.9 50.05 101.85 50.85 Z M 221.85 50.85 L 186.15 50.85 Q 186.266 55.949 187.62 59.63 A 16.919 16.919 0 0 0 188.525 61.675 A 16.643 16.643 0 0 0 190.969 65.197 A 13.329 13.329 0 0 0 194.4 67.9 Q 198.05 69.9 202.35 69.9 A 24.523 24.523 0 0 0 206.153 69.618 A 18.405 18.405 0 0 0 209.725 68.7 Q 212.849 67.538 216.278 65.202 A 43.615 43.615 0 0 0 216.5 65.05 L 219.75 69.7 Q 216.1 72.5 211.525 74.05 A 29.339 29.339 0 0 1 205.652 75.413 A 25.245 25.245 0 0 1 202.6 75.6 A 25.85 25.85 0 0 1 196.456 74.902 A 19.964 19.964 0 0 1 190.175 72.2 A 21.319 21.319 0 0 1 182.975 64.164 A 26.017 26.017 0 0 1 182.25 62.675 A 30.46 30.46 0 0 1 180.026 55.144 A 41.267 41.267 0 0 1 179.5 48.4 A 38.89 38.89 0 0 1 180.178 40.973 A 29.96 29.96 0 0 1 182.3 34.25 A 25.165 25.165 0 0 1 186.013 28.323 A 21.438 21.438 0 0 1 190.075 24.625 A 19.337 19.337 0 0 1 200.125 21.198 A 24.041 24.041 0 0 1 201.65 21.15 A 22.082 22.082 0 0 1 207.07 21.786 A 17.225 17.225 0 0 1 212.6 24.25 A 18.83 18.83 0 0 1 218.412 30.665 A 23.764 23.764 0 0 1 219.575 33.025 Q 221.844 38.334 221.99 45.547 A 49.481 49.481 0 0 1 222 46.55 A 62.603 62.603 0 0 1 221.988 47.793 Q 221.977 48.381 221.953 48.905 A 37.34 37.34 0 0 1 221.95 48.975 Q 221.9 50.05 221.85 50.85 Z M 641.85 50.85 L 606.15 50.85 Q 606.266 55.949 607.62 59.63 A 16.919 16.919 0 0 0 608.525 61.675 A 16.643 16.643 0 0 0 610.969 65.197 A 13.329 13.329 0 0 0 614.4 67.9 Q 618.05 69.9 622.35 69.9 A 24.523 24.523 0 0 0 626.153 69.618 A 18.405 18.405 0 0 0 629.725 68.7 Q 632.849 67.538 636.278 65.202 A 43.615 43.615 0 0 0 636.5 65.05 L 639.75 69.7 Q 636.1 72.5 631.525 74.05 A 29.339 29.339 0 0 1 625.652 75.413 A 25.245 25.245 0 0 1 622.6 75.6 A 25.85 25.85 0 0 1 616.456 74.902 A 19.964 19.964 0 0 1 610.175 72.2 A 21.319 21.319 0 0 1 602.975 64.164 A 26.017 26.017 0 0 1 602.25 62.675 A 30.46 30.46 0 0 1 600.026 55.144 A 41.267 41.267 0 0 1 599.5 48.4 A 38.89 38.89 0 0 1 600.178 40.973 A 29.96 29.96 0 0 1 602.3 34.25 A 25.165 25.165 0 0 1 606.013 28.323 A 21.438 21.438 0 0 1 610.075 24.625 A 19.337 19.337 0 0 1 620.125 21.198 A 24.041 24.041 0 0 1 621.65 21.15 A 22.082 22.082 0 0 1 627.07 21.786 A 17.225 17.225 0 0 1 632.6 24.25 A 18.83 18.83 0 0 1 638.412 30.665 A 23.764 23.764 0 0 1 639.575 33.025 Q 641.844 38.334 641.99 45.547 A 49.481 49.481 0 0 1 642 46.55 A 62.603 62.603 0 0 1 641.988 47.793 Q 641.977 48.381 641.953 48.905 A 37.34 37.34 0 0 1 641.95 48.975 Q 641.9 50.05 641.85 50.85 Z M 326.292 21.7 A 25.527 25.527 0 0 0 320.85 21.15 Q 313.65 21.15 308.775 24.625 A 19.693 19.693 0 0 0 304.796 28.397 A 22.895 22.895 0 0 0 301.45 34.25 A 33.304 33.304 0 0 0 299.538 41.321 A 45.02 45.02 0 0 0 299 48.45 A 45.731 45.731 0 0 0 299.481 55.238 A 33.535 33.535 0 0 0 301.425 62.625 A 25.145 25.145 0 0 0 302.441 64.871 A 19.994 19.994 0 0 0 308.675 72.175 A 17.97 17.97 0 0 0 315.242 75.035 A 25.035 25.035 0 0 0 320.7 75.6 A 24.573 24.573 0 0 0 325.142 75.215 A 17.885 17.885 0 0 0 332.675 72.025 A 20.455 20.455 0 0 0 336.501 68.33 A 23.596 23.596 0 0 0 339.95 62.3 Q 342.4 56.15 342.4 48.35 Q 342.4 44.2 341.806 40.6 A 33.17 33.17 0 0 0 340.025 33.95 A 24.413 24.413 0 0 0 338.96 31.585 A 19.258 19.258 0 0 0 332.85 24.5 A 18.036 18.036 0 0 0 326.292 21.7 Z M 506.292 21.7 A 25.527 25.527 0 0 0 500.85 21.15 Q 493.65 21.15 488.775 24.625 A 19.693 19.693 0 0 0 484.796 28.397 A 22.895 22.895 0 0 0 481.45 34.25 A 33.304 33.304 0 0 0 479.538 41.321 A 45.02 45.02 0 0 0 479 48.45 A 45.731 45.731 0 0 0 479.481 55.238 A 33.535 33.535 0 0 0 481.425 62.625 A 25.145 25.145 0 0 0 482.441 64.871 A 19.994 19.994 0 0 0 488.675 72.175 A 17.97 17.97 0 0 0 495.242 75.035 A 25.035 25.035 0 0 0 500.7 75.6 A 24.573 24.573 0 0 0 505.142 75.215 A 17.885 17.885 0 0 0 512.675 72.025 A 20.455 20.455 0 0 0 516.501 68.33 A 23.596 23.596 0 0 0 519.95 62.3 Q 522.4 56.15 522.4 48.35 Q 522.4 44.2 521.806 40.6 A 33.17 33.17 0 0 0 520.025 33.95 A 24.413 24.413 0 0 0 518.96 31.585 A 19.258 19.258 0 0 0 512.85 24.5 A 18.036 18.036 0 0 0 506.292 21.7 Z M 573.55 61.25 L 573.55 33.95 A 17.13 17.13 0 0 0 569.856 29.825 A 15.771 15.771 0 0 0 567.825 28.45 Q 564.4 26.5 560.4 26.5 A 15.319 15.319 0 0 0 555.501 27.245 A 12.33 12.33 0 0 0 549.225 32.025 Q 545.35 37.55 545.35 48.45 Q 545.35 54.194 546.441 58.535 A 26.588 26.588 0 0 0 546.925 60.225 A 19.973 19.973 0 0 0 548.388 63.679 Q 549.711 66.096 551.6 67.65 A 11.075 11.075 0 0 0 557.055 70.031 A 15.003 15.003 0 0 0 559.35 70.2 Q 564.35 70.2 567.825 67.4 A 29.358 29.358 0 0 0 571.942 63.389 A 25.418 25.418 0 0 0 573.55 61.25 Z M 320.85 26.6 A 16.285 16.285 0 0 0 316.185 27.232 A 12.133 12.133 0 0 0 309.625 31.95 A 16.995 16.995 0 0 0 307.37 36.544 Q 305.8 41.307 305.8 48.45 A 50.935 50.935 0 0 0 306.097 54.144 Q 306.855 60.862 309.55 64.725 A 12.186 12.186 0 0 0 318.477 69.969 A 18.216 18.216 0 0 0 320.7 70.1 Q 328.1 70.1 331.85 64.725 Q 335.445 59.572 335.594 49.249 A 62.516 62.516 0 0 0 335.6 48.35 A 52.472 52.472 0 0 0 335.305 42.585 Q 334.627 36.47 332.388 32.743 A 14.061 14.061 0 0 0 331.875 31.95 A 12.074 12.074 0 0 0 323.044 26.731 A 17.827 17.827 0 0 0 320.85 26.6 Z M 500.85 26.6 A 16.285 16.285 0 0 0 496.185 27.232 A 12.133 12.133 0 0 0 489.625 31.95 A 16.995 16.995 0 0 0 487.37 36.544 Q 485.8 41.307 485.8 48.45 A 50.935 50.935 0 0 0 486.097 54.144 Q 486.855 60.862 489.55 64.725 A 12.186 12.186 0 0 0 498.477 69.969 A 18.216 18.216 0 0 0 500.7 70.1 Q 508.1 70.1 511.85 64.725 Q 515.445 59.572 515.594 49.249 A 62.516 62.516 0 0 0 515.6 48.35 A 52.472 52.472 0 0 0 515.305 42.585 Q 514.627 36.47 512.388 32.743 A 14.061 14.061 0 0 0 511.875 31.95 A 12.074 12.074 0 0 0 503.044 26.731 A 17.827 17.827 0 0 0 500.85 26.6 Z M 66.25 45.25 L 96.1 45.25 A 35.473 35.473 0 0 0 95.651 40.174 Q 94.727 34.657 91.95 31.475 A 12.745 12.745 0 0 0 82.661 26.972 A 16.367 16.367 0 0 0 81.8 26.95 A 14.709 14.709 0 0 0 75.379 28.335 A 14.635 14.635 0 0 0 71.125 31.45 Q 66.8 35.95 66.25 45.25 Z M 186.25 45.25 L 216.1 45.25 A 35.473 35.473 0 0 0 215.651 40.174 Q 214.727 34.657 211.95 31.475 A 12.745 12.745 0 0 0 202.661 26.972 A 16.367 16.367 0 0 0 201.8 26.95 A 14.709 14.709 0 0 0 195.379 28.335 A 14.635 14.635 0 0 0 191.125 31.45 Q 186.8 35.95 186.25 45.25 Z M 606.25 45.25 L 636.1 45.25 A 35.473 35.473 0 0 0 635.651 40.174 Q 634.727 34.657 631.95 31.475 A 12.745 12.745 0 0 0 622.661 26.972 A 16.367 16.367 0 0 0 621.8 26.95 A 14.709 14.709 0 0 0 615.379 28.335 A 14.635 14.635 0 0 0 611.125 31.45 Q 606.8 35.95 606.25 45.25 Z" vector-effect="non-scaling-stroke"/></g></svg>